<?xml version="1.0" encoding="utf-8"?><!-- Uploaded to: SVG Repo, www.svgrepo.com, Generator: SVG Repo Mixer Tools -->
<svg 
  width="800px" 
  height="800px" 
  viewBox="0 0 36 36" 
  xmlns="http://www.w3.org/2000/svg" xmlns:xlink="http://www.w3.org/1999/xlink" aria-hidden="true" 
  role="img" 
  class="iconify iconify--twemoji" 
  preserveAspectRatio="xMidYMid meet">
  
  <circle 
    fill="#F0F0F6" 
    cx="18" cy="18" 
    r="18">
  </circle>

  <g
    transform="translate(6.5 5)">
    <path 
      d="M2.168,10.555a1,1,0,0,1,.278-1.387l9-6a1,1,0,0,1,1.11,0l9,6A1,1,0,0,1,21,11H19v9a1,1,0,0,1-1,1H6a1,1,0,0,1-1-1V11H3l.019-.019A.981.981,0,0,1,2.168,10.555Z"/>
  </g>
  
</svg>