<svg width="37" height="27" version="1.0" id="Layer_1" xmlns="http://www.w3.org/2000/svg" xmlns:xlink="http://www.w3.org/1999/xlink" x="0px" y="0px" viewBox="0 0 1924.7 647.7" enable-background="new 0 0 1924.7 647.7" xml:space="preserve" aria-labelledby="socialDonorsChoose" role="img">
    <title id="socialDonorsChoose">DonorsChoose</title>
    <path fill="#000000" fill-rule="evenodd" d="M290.4,138.7c0-76.3-58.2-130.2-157.6-130.2H12.2v269.6h114C230.3,278.1,290.4,220.3,290.4,138.7 M122,110.6
        h15.8c26.2,0,38.9,12.7,38.9,32c0,18.9-12.7,32.7-38.9,32.7H122C122,175.3,122,110.6,122,110.6z M472.5,0
        c-84,0-145.2,62-145.2,143.3s61.3,143.3,145.2,143.3c84.4,0,145.2-62,145.2-143.3S556.9,0,472.5,0 M472.5,178.7
        c-20.4,0-34.3-14.3-34.3-35.4c0-21.2,13.9-35.4,34.3-35.4c20.4,0,34.3,14.3,34.3,35.4C506.8,164.5,492.9,178.7,472.5,178.7
        M776.4,278.1H667V7.3h6.2l150.2,79V8.5h109.4v270.8h-5l-151.4-79.4V278.1z M1127.3,0c-84,0-145.2,62-145.2,143.3
        s61.2,143.3,145.2,143.3c84.4,0,145.2-62,145.2-143.3S1211.7,0,1127.3,0 M1127.3,178.7c-20.4,0-34.3-14.3-34.3-35.4
        c0-21.2,13.9-35.4,34.3-35.4s34.3,14.3,34.3,35.4C1161.6,164.5,1147.7,178.7,1127.3,178.7 M1588.4,92.8c0-40.4-32-84.4-122.5-84.4
        h-144.1V278H1437v-63.6l107.9,74.7l65.1-83.6l-57-40.8C1572.2,147.2,1588.4,121.3,1588.4,92.8 M1447.8,144.1H1437V88.6h10.8
        c22,0,32.7,10.8,32.7,27.3C1480.5,132.1,1469.8,144.1,1447.8,144.1 M1916.6,188.8c0,48.9-38.1,96.7-139.4,96.7
        c-59.7,0-112.9-16.2-146-37l50.8-66.3c21.2,13.1,51.2,22.7,76.7,22.7c19.3,0,23.9-5.4,23.9-11.6c0-6.2-4.6-9.6-32.4-13.9
        c-76.3-12.3-100.5-41.2-100.5-82.1c0-46.6,41.2-96.7,137.5-96.7c56.2,0,103.6,13.1,137.5,32.4l-50.5,66
        c-23.1-10.8-46.2-17.7-68.6-17.7c-15.4,0-22,5-22,10.8c0,6.2,3.5,9.2,32.4,13.9C1888.5,117.9,1916.6,147.2,1916.6,188.8
        M130.9,504.4c0,17.7,17.3,26.6,41.2,26.6c18.5,0,36.2-3.5,58.2-12.3l65.5,84.4C263.1,628.5,213.7,647,156,647
        C60.1,647,0,586.1,0,505.6c0-82.4,66.6-143.7,163.3-143.7c52.4,0,102.1,16.6,133.7,41.6l-67,88.2c-22.3-9.6-38.5-13.9-57.8-13.9
        C149.4,477.8,130.9,487.5,130.9,504.4 M487.9,369.6h117.5v269.7H487.9V556h-30.8v83.2H339.6V369.6h117.5V452h30.8V369.6z
        M799.9,361.1c-84,0-145.2,62-145.2,143.3S716,647.7,799.9,647.7c84.4,0,145.2-62,145.2-143.3C945.2,423.1,884.3,361.1,799.9,361.1
        M799.9,539.9c-20.4,0-34.3-14.3-34.3-35.4c0-21.2,13.9-35.4,34.3-35.4s34.3,14.3,34.3,35.4C834.2,525.6,820.3,539.9,799.9,539.9
        M1127.3,361.1c-84,0-145.2,62-145.2,143.3s61.2,143.3,145.2,143.3c84.4,0,145.2-62,145.2-143.3
        C1272.6,423.1,1211.7,361.1,1127.3,361.1 M1127.3,539.9c-20.4,0-34.3-14.3-34.3-35.4c0-21.2,13.9-35.4,34.3-35.4
        s34.3,14.3,34.3,35.4C1161.6,525.6,1147.7,539.9,1127.3,539.9 M1456.3,453.2c0,6.2,3.5,9.2,32.4,13.9
        c72.4,11.9,100.5,41.2,100.5,82.8c0,48.9-38.1,96.7-139.4,96.7c-59.7,0-112.9-16.2-146-37l50.9-66.3c21.2,13.1,51.2,22.7,76.7,22.7
        c19.3,0,23.9-5.4,23.9-11.6c0-6.2-4.6-9.6-32.4-13.9c-76.3-12.3-100.5-41.2-100.5-82.1c0-46.6,41.2-96.7,137.5-96.7
        c56.2,0,103.6,13.1,137.5,32.4l-50.5,65.9c-23.1-10.8-46.2-17.7-68.6-17.7C1462.8,442.4,1456.3,447.4,1456.3,453.2 M1767.1,559.1
        H1915v80.1h-265.8V369.6h265v79H1767v23.5h99.8v63.2H1767L1767.1,559.1L1767.1,559.1z"></path>
</svg>