<?xml version="1.0" standalone="no"?>
<!DOCTYPE svg PUBLIC "-//W3C//DTD SVG 20010904//EN"
 "http://www.w3.org/TR/2001/REC-SVG-20010904/DTD/svg10.dtd">
<svg version="1.0" xmlns="http://www.w3.org/2000/svg"
 width="478.000000pt" height="518.000000pt" viewBox="0 0 478.000000 518.000000"
 preserveAspectRatio="xMidYMid meet">

<g transform="translate(0.000000,518.000000) scale(0.100000,-0.100000)"
fill="#000000" stroke="none">
<path d="M0 2590 l0 -2590 2390 0 2390 0 0 2590 0 2590 -2390 0 -2390 0 0
-2590z m2810 2267 c356 -79 650 -238 906 -492 253 -251 423 -564 501 -924 34
-160 43 -461 19 -631 -30 -203 -75 -354 -162 -538 -197 -418 -577 -768 -1000
-921 -98 -36 -132 -35 -164 6 -19 24 -20 40 -20 332 0 235 -4 321 -15 369 -17
71 -42 125 -79 169 l-25 30 98 16 c474 78 696 328 727 819 12 190 -36 367
-135 497 l-48 64 13 43 c32 107 26 265 -15 387 -17 50 -19 52 -58 55 -83 6
-226 -46 -378 -138 l-82 -50 -89 20 c-243 52 -485 52 -727 0 l-89 -20 -82 50
c-154 93 -295 144 -379 138 -39 -3 -41 -5 -58 -57 -31 -91 -43 -211 -29 -303
6 -44 15 -90 19 -102 7 -16 -1 -34 -34 -81 -120 -169 -158 -326 -136 -561 32
-332 161 -546 403 -666 94 -46 179 -72 311 -94 l107 -18 -25 -26 c-31 -33 -73
-124 -81 -176 -5 -38 -10 -44 -49 -58 -70 -27 -158 -38 -224 -27 -107 17 -176
66 -257 182 -99 140 -202 206 -308 196 -86 -8 -81 -41 17 -113 81 -59 120
-108 175 -224 108 -226 267 -301 565 -267 l68 8 -3 -190 c-3 -207 -8 -223 -68
-236 -58 -13 -304 96 -480 213 -920 611 -1091 1902 -361 2739 266 304 647 521
1031 587 52 8 106 18 120 20 14 2 124 3 245 1 191 -2 235 -6 335 -28z m-1177
-3928 c41 -11 43 -17 26 -85 -10 -39 -15 -45 -33 -40 -117 33 -213 7 -246 -66
-22 -48 -27 -167 -10 -230 18 -65 99 -111 165 -94 23 6 25 11 25 66 l0 59 -42
3 -43 3 0 55 0 55 113 3 112 3 0 -164 0 -163 -37 -19 c-56 -27 -219 -33 -280
-10 -63 24 -106 66 -134 127 -20 46 -24 69 -24 173 0 215 61 310 214 334 52 8
138 4 194 -10z m797 -124 l0 -115 90 0 90 0 0 115 0 116 68 -3 67 -3 0 -305 0
-305 -67 -3 -67 -3 -3 133 -3 133 -85 0 -85 0 -3 -132 -3 -133 -64 0 -65 0 0
310 0 310 65 0 65 0 0 -115z m960 11 l0 -103 53 14 c144 40 231 -61 213 -249
-13 -140 -55 -188 -164 -188 -38 0 -76 7 -98 18 -28 13 -38 14 -41 5 -3 -8
-23 -13 -54 -13 l-49 0 0 310 0 310 70 0 70 0 0 -104z m-1527 83 c24 -11 47
-47 47 -73 0 -7 -9 -25 -21 -40 -15 -19 -30 -26 -55 -26 -69 0 -99 76 -49 125
27 28 42 30 78 14z m279 -116 l3 -58 48 -3 47 -3 0 -55 0 -54 -50 0 -50 0 0
-86 c0 -107 8 -124 61 -124 l40 0 -3 -52 -3 -53 -76 0 c-63 0 -81 4 -99 20
-39 34 -50 77 -50 190 l0 105 -36 0 -35 0 3 47 c3 44 5 47 36 55 32 8 32 9 32
68 l0 60 65 0 64 0 3 -57z m-242 -273 l0 -210 -70 0 -70 0 0 210 0 210 70 0
70 0 0 -210z m1040 66 c0 -79 3 -151 6 -160 4 -11 19 -16 44 -16 72 0 70 -5
70 166 l0 154 65 0 65 0 0 -210 0 -210 -44 0 c-24 0 -46 5 -48 10 -2 7 -16 5
-40 -5 -22 -8 -67 -15 -106 -15 -56 0 -75 4 -97 22 -47 37 -55 72 -55 248 l0
160 70 0 70 0 0 -144z"/>
<path d="M3423 618 l-33 -9 0 -98 c0 -110 1 -111 70 -111 50 0 60 18 60 107 0
99 -27 130 -97 111z"/>
</g>
</svg>
